<svg xmlns="http://www.w3.org/2000/svg" xmlns:xlink="http://www.w3.org/1999/xlink"><symbol fill="none" viewBox="0 0 18 18" id="card__bottom"><path d="M1.35 5l9 8.696L9 15 0 6.304 1.35 5z" fill="#1B1D1D"/><path d="M7.65 13.696l9-8.696L18 6.304 9 15l-1.35-1.304z" fill="#1B1D1D"/></symbol><symbol fill="none" viewBox="0 0 16 16" id="card__cross"><path d="M3.757 10.828l7.071-7.07 1.414 1.414-7.07 7.07-1.415-1.414z" fill="#0054E1"/><path d="M3.757 5.172l1.414-1.415 7.071 7.071-1.414 1.415-7.07-7.071z" fill="#0054E1"/></symbol><symbol viewBox="0 0 10 10" id="card__plus"><path d="M0 4h10v2H0V4z" fill="#1B1D1D"/><path d="M4 0h2v10H4V0z" fill="#1B1D1D"/></symbol><symbol fill="none" viewBox="0 0 18 18" id="card__top"><path d="M16.65 13l-9-8.696L9 3l9 8.696L16.65 13z" fill="#1B1D1D"/><path d="M10.35 4.304L1.35 13 0 11.696 9 3l1.35 1.304z" fill="#1B1D1D"/></symbol><symbol fill="none" viewBox="0 0 12 21" id="dope__lightning"><path d="M8.814.678L0 11.903h4.066L2.49 20.678l8.814-11.225H7.24L8.814.678z" fill="#FFBE0B"/></symbol><symbol viewBox="0 0 18 18" id="dope__next"><path d="M5 16.65l8.696-9L15 9l-8.696 9L5 16.65z"/><path d="M13.696 10.35L5 1.35 6.304 0 15 9l-1.304 1.35z"/></symbol><symbol viewBox="0 0 10 18" id="dope__prev"><path d="M10 16.65l-8.696-9L0 9l8.696 9L10 16.65z"/><path d="M1.304 10.35l8.696-9L8.696 0 0 9l1.304 1.35z"/></symbol><symbol viewBox="0 0 18 16" id="footer__icon"><path d="M16.785.1L.84 6.247c-1.088.438-1.08 1.045-.2 1.316L4.735 8.84l9.472-5.976c.448-.273.857-.126.52.172L7.053 9.962H7.05h.002l-.283 4.22c.414 0 .597-.19.829-.413l1.988-1.934 4.136 3.055c.762.42 1.31.204 1.5-.706L17.938 1.39C18.216.276 17.513-.229 16.785.1z"/></symbol><symbol viewBox="0 0 18 18" id="footer__icon2"><path d="M9 0C6.558 0 6.25.011 5.29.054 4.332.099 3.679.25 3.106.472c-.6.226-1.145.58-1.594 1.039-.458.45-.812.994-1.038 1.594C.25 3.676.097 4.331.053 5.287.011 6.25 0 6.555 0 9.002c0 2.444.011 2.75.054 3.71.045.958.196 1.611.418 2.184a4.42 4.42 0 001.039 1.594c.5.5 1.001.809 1.593 1.038.574.223 1.226.375 2.185.419.96.043 1.266.054 3.711.054s2.75-.011 3.71-.054c.958-.045 1.613-.196 2.186-.419.6-.226 1.144-.58 1.593-1.038.5-.5.808-1.002 1.038-1.594.222-.573.374-1.226.419-2.185.043-.96.054-1.265.054-3.71 0-2.445-.011-2.75-.054-3.711-.045-.958-.197-1.612-.419-2.184a4.417 4.417 0 00-1.038-1.594A4.4 4.4 0 0014.895.473c-.574-.223-1.229-.376-2.186-.42C11.75.011 11.444 0 8.998 0H9zm-.807 1.622h.808c2.403 0 2.688.008 3.636.052.878.04 1.355.187 1.672.31.42.163.72.358 1.035.673.315.315.51.615.673 1.035.123.316.27.793.309 1.67.044.95.053 1.234.053 3.636s-.01 2.687-.053 3.636c-.04.877-.187 1.353-.31 1.67a2.77 2.77 0 01-.673 1.034 2.78 2.78 0 01-1.035.673c-.315.124-.792.27-1.67.31-.95.043-1.234.053-3.637.053s-2.689-.01-3.637-.052c-.877-.041-1.353-.187-1.67-.311a2.789 2.789 0 01-1.036-.673 2.79 2.79 0 01-.675-1.035c-.122-.316-.27-.793-.309-1.67-.043-.949-.052-1.233-.052-3.637s.01-2.687.052-3.635c.04-.878.187-1.355.31-1.672.164-.42.36-.72.674-1.035a2.78 2.78 0 011.035-.673c.318-.124.794-.27 1.671-.31.83-.039 1.152-.05 2.83-.051v.002zm5.612 1.494a1.08 1.08 0 100 2.16 1.08 1.08 0 000-2.16zM9 4.378a4.623 4.623 0 10-.144 9.245A4.623 4.623 0 009 4.378zM9 6a3 3 0 110 6 3 3 0 010-6z"/></symbol><symbol viewBox="0 0 10 2" id="goods__minus"><path d="M0 0h10v2H0z"/></symbol><symbol viewBox="0 0 10 10" id="goods__plus"><path d="M0 4h10v2H0V4z"/><path d="M4 0h2v10H4V0z"/></symbol><symbol fill="none" viewBox="0 0 6 6" id="header__arrow"><path d="M3 6L.402 1.5h5.196L3 6z" fill="#fff"/></symbol><symbol viewBox="0 0 18 18" id="header__cards"><path fill-rule="evenodd" clip-rule="evenodd" d="M2.7 1.8h12.6a.9.9 0 01.9.9v12.6a.9.9 0 01-.9.9H2.7a.9.9 0 01-.9-.9V2.7a.9.9 0 01.9-.9zM0 2.7A2.7 2.7 0 012.7 0h12.6A2.7 2.7 0 0118 2.7v12.6a2.7 2.7 0 01-2.7 2.7H2.7A2.7 2.7 0 010 15.3V2.7zM9 9C6.515 9 4.5 6.583 4.5 3.6h1.8c0 2.31 1.503 3.6 2.7 3.6 1.197 0 2.7-1.29 2.7-3.6h1.8C13.5 6.583 11.485 9 9 9z"/></symbol><symbol viewBox="0 0 18 18" id="header__instagram"><path d="M9 0C6.558 0 6.25.011 5.29.054 4.332.099 3.679.25 3.106.472c-.6.226-1.145.58-1.594 1.039-.458.45-.812.994-1.038 1.594C.25 3.676.097 4.331.053 5.287.011 6.25 0 6.555 0 9.002c0 2.444.011 2.75.054 3.71.045.958.196 1.611.418 2.184a4.42 4.42 0 001.039 1.594c.5.5 1.001.809 1.593 1.038.574.223 1.226.375 2.185.419.96.043 1.266.054 3.711.054s2.75-.011 3.71-.054c.958-.045 1.613-.196 2.186-.419.6-.226 1.144-.58 1.593-1.038.5-.5.808-1.002 1.038-1.594.222-.573.374-1.226.419-2.185.043-.96.054-1.265.054-3.71 0-2.445-.011-2.75-.054-3.711-.045-.958-.197-1.612-.419-2.184a4.417 4.417 0 00-1.038-1.594A4.4 4.4 0 0014.895.473c-.574-.223-1.229-.376-2.186-.42C11.75.011 11.444 0 8.998 0H9zm-.807 1.622h.808c2.403 0 2.688.008 3.636.052.878.04 1.355.187 1.672.31.42.163.72.358 1.035.673.315.315.51.615.673 1.035.123.316.27.793.309 1.67.044.95.053 1.234.053 3.636s-.01 2.687-.053 3.636c-.04.877-.187 1.353-.31 1.67a2.77 2.77 0 01-.673 1.034 2.78 2.78 0 01-1.035.673c-.315.124-.792.27-1.67.31-.95.043-1.234.053-3.637.053s-2.689-.01-3.637-.052c-.877-.041-1.353-.187-1.67-.311a2.789 2.789 0 01-1.036-.673 2.79 2.79 0 01-.675-1.035c-.122-.316-.27-.793-.309-1.67-.043-.949-.052-1.233-.052-3.637s.01-2.687.052-3.635c.04-.878.187-1.355.31-1.672.164-.42.36-.72.674-1.035a2.78 2.78 0 011.035-.673c.318-.124.794-.27 1.671-.31.83-.039 1.152-.05 2.83-.051v.002zm5.612 1.494a1.08 1.08 0 100 2.16 1.08 1.08 0 000-2.16zM9 4.378a4.623 4.623 0 10-.144 9.245A4.623 4.623 0 009 4.378zM9 6a3 3 0 110 6 3 3 0 010-6z"/></symbol><symbol viewBox="0 0 18 18" id="header__skype"><path d="M16.785 2.1L.84 8.247c-1.088.438-1.08 1.045-.2 1.316l4.094 1.276 9.472-5.975c.448-.273.857-.126.52.172l-7.673 6.926H7.05h.002l-.283 4.22c.414 0 .597-.19.829-.413l1.988-1.934 4.136 3.055c.762.42 1.31.204 1.5-.706L17.938 3.39c.278-1.114-.425-1.619-1.153-1.29z"/></symbol><symbol viewBox="0 0 18 18" id="modal__close"><path d="M1 2.6L2.6 1 17 15.4 15.4 17 1 2.6z" fill="#fff"/><path d="M2.6 17L1 15.4 15.4 1 17 2.6 2.6 17z"/></symbol><symbol viewBox="0 0 18 18" id="popular__next"><path d="M5 16.65l8.696-9L15 9l-8.696 9L5 16.65z"/><path d="M13.696 10.35L5 1.35 6.304 0 15 9l-1.304 1.35z"/></symbol><symbol viewBox="0 0 18 18" id="popular__prev"><path d="M13 16.65l-8.696-9L3 9l8.696 9L13 16.65z"/><path d="M4.304 10.35l8.696-9L11.696 0 3 9l1.304 1.35z"/></symbol></svg>